<mxfile host="65bd71144e">
    <diagram id="D3D4Ook8UykFeaz8eLYW" name="Страница 1">
        <mxGraphModel dx="1383" dy="1058" grid="1" gridSize="10" guides="0" tooltips="1" connect="1" arrows="1" fold="1" page="0" pageScale="1" pageWidth="827" pageHeight="1169" background="#FFFFFF" math="0" shadow="0">
            <root>
                <mxCell id="0"/>
                <mxCell id="1" parent="0"/>
                <mxCell id="3" value="" style="rounded=0;whiteSpace=wrap;html=1;fillColor=#dae8fc;strokeColor=#6c8ebf;" vertex="1" parent="1">
                    <mxGeometry x="80" width="70" height="160" as="geometry"/>
                </mxCell>
                <mxCell id="4" value="" style="rounded=0;whiteSpace=wrap;html=1;fillColor=#647687;fontColor=#ffffff;strokeColor=#314354;" vertex="1" parent="1">
                    <mxGeometry x="100" y="130" width="30" height="40" as="geometry"/>
                </mxCell>
                <mxCell id="5" value="" style="rhombus;whiteSpace=wrap;html=1;" vertex="1" parent="1">
                    <mxGeometry x="100" y="80" width="27.5" height="30" as="geometry"/>
                </mxCell>
                <mxCell id="6" value="" style="rounded=0;whiteSpace=wrap;html=1;fillColor=#fa6800;fontColor=#000000;strokeColor=#C73500;" vertex="1" parent="1">
                    <mxGeometry x="200" width="70" height="160" as="geometry"/>
                </mxCell>
                <mxCell id="8" value="" style="endArrow=none;html=1;exitX=0.25;exitY=1;exitDx=0;exitDy=0;fillColor=#e51400;strokeColor=#B20000;entryX=0.165;entryY=0.031;entryDx=0;entryDy=0;entryPerimeter=0;" edge="1" parent="1" source="10" target="81">
                    <mxGeometry width="50" height="50" relative="1" as="geometry">
                        <mxPoint x="290" y="140" as="sourcePoint"/>
                        <mxPoint x="218" y="200" as="targetPoint"/>
                    </mxGeometry>
                </mxCell>
                <mxCell id="9" value="" style="endArrow=none;html=1;exitDx=0;exitDy=0;strokeColor=#000000;startArrow=none;entryX=0.806;entryY=-0.004;entryDx=0;entryDy=0;entryPerimeter=0;" edge="1" parent="1" source="35" target="81">
                    <mxGeometry width="50" height="50" relative="1" as="geometry">
                        <mxPoint x="250" y="160" as="sourcePoint"/>
                        <mxPoint x="250.5" y="200" as="targetPoint"/>
                    </mxGeometry>
                </mxCell>
                <mxCell id="10" value="IN 24 V" style="text;html=1;strokeColor=none;fillColor=none;align=center;verticalAlign=middle;whiteSpace=wrap;rounded=0;" vertex="1" parent="1">
                    <mxGeometry x="200" y="130" width="70" height="30" as="geometry"/>
                </mxCell>
                <mxCell id="13" value="" style="endArrow=none;html=1;entryX=0.25;entryY=0;entryDx=0;entryDy=0;exitX=1;exitY=0.063;exitDx=0;exitDy=0;exitPerimeter=0;fillColor=#e51400;strokeColor=#B20000;" edge="1" parent="1" source="3" target="6">
                    <mxGeometry width="50" height="50" relative="1" as="geometry">
                        <mxPoint x="190" y="100" as="sourcePoint"/>
                        <mxPoint x="240" y="50" as="targetPoint"/>
                        <Array as="points">
                            <mxPoint x="170" y="10"/>
                            <mxPoint x="170" y="-20"/>
                            <mxPoint x="218" y="-20"/>
                        </Array>
                    </mxGeometry>
                </mxCell>
                <mxCell id="14" value="" style="endArrow=none;html=1;entryX=0.708;entryY=-0.006;entryDx=0;entryDy=0;exitX=1.001;exitY=0.119;exitDx=0;exitDy=0;exitPerimeter=0;strokeColor=#000000;entryPerimeter=0;" edge="1" parent="1" source="3" target="6">
                    <mxGeometry width="50" height="50" relative="1" as="geometry">
                        <mxPoint x="100" y="40" as="sourcePoint"/>
                        <mxPoint x="150" y="-10" as="targetPoint"/>
                        <Array as="points">
                            <mxPoint x="180" y="19"/>
                            <mxPoint x="180" y="-30"/>
                            <mxPoint x="249" y="-30"/>
                        </Array>
                    </mxGeometry>
                </mxCell>
                <mxCell id="15" value="9V" style="text;html=1;strokeColor=none;fillColor=none;align=center;verticalAlign=middle;whiteSpace=wrap;rounded=0;" vertex="1" parent="1">
                    <mxGeometry x="200" width="70" height="30" as="geometry"/>
                </mxCell>
                <mxCell id="16" value="&lt;font color=&quot;#000000&quot; style=&quot;line-height: 1; font-size: 6px;&quot;&gt;VIN&lt;/font&gt;" style="text;html=1;strokeColor=none;fillColor=none;align=right;verticalAlign=middle;whiteSpace=wrap;rounded=0;horizontal=1;fontSize=6;" vertex="1" parent="1">
                    <mxGeometry x="120" y="6" width="30" height="10" as="geometry"/>
                </mxCell>
                <mxCell id="17" value="&lt;font color=&quot;#000000&quot; style=&quot;line-height: 1 ; font-size: 6px&quot;&gt;GND&lt;/font&gt;" style="text;html=1;strokeColor=none;fillColor=none;align=right;verticalAlign=middle;whiteSpace=wrap;rounded=0;horizontal=1;fontSize=6;" vertex="1" parent="1">
                    <mxGeometry x="120" y="15" width="30" height="10" as="geometry"/>
                </mxCell>
                <mxCell id="18" value="" style="rounded=0;whiteSpace=wrap;html=1;fontSize=6;fontColor=#ffffff;fillColor=#1ba1e2;strokeColor=#006EAF;" vertex="1" parent="1">
                    <mxGeometry x="-80" y="-20" width="10" height="180" as="geometry"/>
                </mxCell>
                <mxCell id="19" value="" style="endArrow=none;html=1;fontSize=6;fontColor=#000000;exitX=1.013;exitY=0.421;exitDx=0;exitDy=0;exitPerimeter=0;entryX=0.992;entryY=0.942;entryDx=0;entryDy=0;entryPerimeter=0;fillColor=#60a917;strokeColor=#2D7600;" edge="1" parent="1" source="20" target="18">
                    <mxGeometry width="50" height="50" relative="1" as="geometry">
                        <mxPoint x="150" y="120" as="sourcePoint"/>
                        <mxPoint x="170" y="88" as="targetPoint"/>
                        <Array as="points">
                            <mxPoint x="160" y="88"/>
                            <mxPoint x="160" y="180"/>
                            <mxPoint x="60" y="180"/>
                            <mxPoint x="60" y="150"/>
                        </Array>
                    </mxGeometry>
                </mxCell>
                <mxCell id="20" value="&lt;font color=&quot;#000000&quot; style=&quot;line-height: 1 ; font-size: 6px&quot;&gt;A3&lt;/font&gt;" style="text;html=1;strokeColor=none;fillColor=none;align=right;verticalAlign=middle;whiteSpace=wrap;rounded=0;horizontal=1;fontSize=6;" vertex="1" parent="1">
                    <mxGeometry x="120" y="84" width="30" height="10" as="geometry"/>
                </mxCell>
                <mxCell id="21" value="" style="endArrow=none;html=1;fontSize=6;fontColor=#000000;entryX=0;entryY=0.5;entryDx=0;entryDy=0;fillColor=#60a917;strokeColor=#2D7600;exitX=0.247;exitY=0.991;exitDx=0;exitDy=0;exitPerimeter=0;" edge="1" parent="1" source="27" target="3">
                    <mxGeometry width="50" height="50" relative="1" as="geometry">
                        <mxPoint x="130" y="-90" as="sourcePoint"/>
                        <mxPoint x="60" y="10" as="targetPoint"/>
                        <Array as="points">
                            <mxPoint x="130" y="-20"/>
                            <mxPoint x="60" y="-20"/>
                            <mxPoint x="60" y="80"/>
                        </Array>
                    </mxGeometry>
                </mxCell>
                <mxCell id="22" value="&lt;font color=&quot;#000000&quot; style=&quot;line-height: 1 ; font-size: 6px&quot;&gt;D5 PWM&lt;br&gt;&lt;/font&gt;" style="text;html=1;strokeColor=none;fillColor=none;align=left;verticalAlign=middle;whiteSpace=wrap;rounded=0;horizontal=1;fontSize=6;" vertex="1" parent="1">
                    <mxGeometry x="80" y="75" width="30" height="10" as="geometry"/>
                </mxCell>
                <mxCell id="23" value="" style="endArrow=none;html=1;fontSize=6;fontColor=#000000;entryX=0;entryY=0.5;entryDx=0;entryDy=0;exitX=0.245;exitY=0.985;exitDx=0;exitDy=0;fillColor=#60a917;strokeColor=#2D7600;exitPerimeter=0;" edge="1" parent="1" source="26">
                    <mxGeometry width="50" height="50" relative="1" as="geometry">
                        <mxPoint x="1.4210854715202004e-14" y="11.600000000000023" as="sourcePoint"/>
                        <mxPoint x="79.14" y="90" as="targetPoint"/>
                        <Array as="points">
                            <mxPoint x="50" y="12"/>
                            <mxPoint x="50" y="90"/>
                        </Array>
                    </mxGeometry>
                </mxCell>
                <mxCell id="24" value="&lt;font color=&quot;#000000&quot; style=&quot;line-height: 1 ; font-size: 6px&quot;&gt;D6 PWM&lt;br&gt;&lt;/font&gt;" style="text;html=1;strokeColor=none;fillColor=none;align=left;verticalAlign=middle;whiteSpace=wrap;rounded=0;horizontal=1;fontSize=6;" vertex="1" parent="1">
                    <mxGeometry x="80" y="85" width="30" height="10" as="geometry"/>
                </mxCell>
                <mxCell id="26" value="MOSFET&lt;br&gt;IRF3205" style="rounded=0;whiteSpace=wrap;html=1;fontSize=6;fontColor=#FFFFFF;" vertex="1" parent="1">
                    <mxGeometry x="40" y="-140" width="40" height="40" as="geometry"/>
                </mxCell>
                <mxCell id="27" value="MOSFET&lt;br&gt;IRF3205" style="rounded=0;whiteSpace=wrap;html=1;fontSize=6;fontColor=#FFFFFF;" vertex="1" parent="1">
                    <mxGeometry x="120" y="-140" width="40" height="40" as="geometry"/>
                </mxCell>
                <mxCell id="28" value="" style="endArrow=none;html=1;fontSize=6;fontColor=#000000;entryX=0.748;entryY=0.984;entryDx=0;entryDy=0;startArrow=none;fillColor=#a0522d;strokeColor=#000000;entryPerimeter=0;" edge="1" parent="1" source="29" target="27">
                    <mxGeometry width="50" height="50" relative="1" as="geometry">
                        <mxPoint x="250" y="190" as="sourcePoint"/>
                        <mxPoint x="230" y="-90" as="targetPoint"/>
                        <Array as="points">
                            <mxPoint x="150" y="-50"/>
                        </Array>
                    </mxGeometry>
                </mxCell>
                <mxCell id="29" value="" style="shape=waypoint;sketch=0;fillStyle=solid;size=6;pointerEvents=1;points=[];fillColor=#000000;resizable=0;rotatable=0;perimeter=centerPerimeter;snapToPoint=1;fontSize=6;fontColor=#ffffff;strokeColor=#000000;" vertex="1" parent="1">
                    <mxGeometry x="130" y="-60" width="40" height="40" as="geometry"/>
                </mxCell>
                <mxCell id="31" value="" style="endArrow=none;html=1;fontSize=6;fontColor=#000000;fillColor=#a20025;strokeColor=#000000;startArrow=none;" edge="1" parent="1" source="35" target="29">
                    <mxGeometry width="50" height="50" relative="1" as="geometry">
                        <mxPoint x="250" y="190" as="sourcePoint"/>
                        <mxPoint x="150" y="-90" as="targetPoint"/>
                        <Array as="points">
                            <mxPoint x="300" y="180"/>
                            <mxPoint x="300" y="-40"/>
                        </Array>
                    </mxGeometry>
                </mxCell>
                <mxCell id="32" value="" style="endArrow=none;html=1;fontSize=6;fontColor=#000000;exitX=0.75;exitY=1;exitDx=0;exitDy=0;fillColor=#a0522d;strokeColor=#000000;" edge="1" parent="1" source="26" target="29">
                    <mxGeometry width="50" height="50" relative="1" as="geometry">
                        <mxPoint x="70" y="-90.96000000000004" as="sourcePoint"/>
                        <mxPoint x="150" y="-50" as="targetPoint"/>
                        <Array as="points">
                            <mxPoint x="70" y="-40"/>
                        </Array>
                    </mxGeometry>
                </mxCell>
                <mxCell id="33" value="" style="endArrow=none;html=1;fontSize=6;fontColor=#000000;strokeColor=#000000;entryX=0.498;entryY=0.981;entryDx=0;entryDy=0;exitX=0.97;exitY=0.056;exitDx=0;exitDy=0;exitPerimeter=0;fillColor=#a20025;entryPerimeter=0;" edge="1" parent="1" source="18" target="26">
                    <mxGeometry width="50" height="50" relative="1" as="geometry">
                        <mxPoint x="-40" y="-60" as="sourcePoint"/>
                        <mxPoint x="10" y="-110" as="targetPoint"/>
                        <Array as="points">
                            <mxPoint x="-50" y="-10"/>
                            <mxPoint x="-50" y="-70"/>
                            <mxPoint x="60" y="-70"/>
                        </Array>
                    </mxGeometry>
                </mxCell>
                <mxCell id="34" value="" style="endArrow=none;html=1;fontSize=6;fontColor=#000000;strokeColor=#000000;entryX=0.494;entryY=0.978;entryDx=0;entryDy=0;exitX=1.033;exitY=0.16;exitDx=0;exitDy=0;exitPerimeter=0;entryPerimeter=0;" edge="1" parent="1" source="18" target="27">
                    <mxGeometry width="50" height="50" relative="1" as="geometry">
                        <mxPoint x="-50" y="-50" as="sourcePoint"/>
                        <mxPoint y="-100" as="targetPoint"/>
                        <Array as="points">
                            <mxPoint x="-40" y="9"/>
                            <mxPoint x="-40" y="-50"/>
                            <mxPoint x="140" y="-50"/>
                        </Array>
                    </mxGeometry>
                </mxCell>
                <mxCell id="35" value="" style="shape=waypoint;sketch=0;fillStyle=solid;size=6;pointerEvents=1;points=[];fillColor=#000000;resizable=0;rotatable=0;perimeter=centerPerimeter;snapToPoint=1;fontSize=6;fontColor=#ffffff;strokeColor=#000000;" vertex="1" parent="1">
                    <mxGeometry x="230" y="160" width="40" height="40" as="geometry"/>
                </mxCell>
                <mxCell id="37" value="" style="endArrow=none;html=1;strokeColor=#000000;entryX=0.5;entryY=1;entryDx=0;entryDy=0;entryPerimeter=0;" edge="1" parent="1" target="35">
                    <mxGeometry width="50" height="50" relative="1" as="geometry">
                        <mxPoint x="250" y="160" as="sourcePoint"/>
                        <mxPoint x="250.5" y="199.9999999999999" as="targetPoint"/>
                    </mxGeometry>
                </mxCell>
                <mxCell id="38" value="" style="endArrow=none;html=1;fontSize=6;fontColor=#FFFFFF;strokeColor=#B20000;entryX=1;entryY=0.25;entryDx=0;entryDy=0;exitX=1.005;exitY=0.281;exitDx=0;exitDy=0;exitPerimeter=0;fillColor=#e51400;" edge="1" parent="1" source="18" target="3">
                    <mxGeometry width="50" height="50" relative="1" as="geometry">
                        <mxPoint x="40" y="260" as="sourcePoint"/>
                        <mxPoint x="90" y="210" as="targetPoint"/>
                        <Array as="points">
                            <mxPoint x="40" y="31"/>
                            <mxPoint x="40" y="200"/>
                            <mxPoint x="190" y="200"/>
                            <mxPoint x="190" y="40"/>
                        </Array>
                    </mxGeometry>
                </mxCell>
                <mxCell id="39" value="&lt;font color=&quot;#000000&quot; style=&quot;line-height: 1 ; font-size: 6px&quot;&gt;5V&lt;/font&gt;" style="text;html=1;strokeColor=none;fillColor=none;align=right;verticalAlign=middle;whiteSpace=wrap;rounded=0;horizontal=1;fontSize=6;" vertex="1" parent="1">
                    <mxGeometry x="120" y="36" width="30" height="10" as="geometry"/>
                </mxCell>
                <mxCell id="40" value="" style="endArrow=none;html=1;fontSize=6;fontColor=#FFFFFF;strokeColor=#000000;entryX=0;entryY=0.25;entryDx=0;entryDy=0;exitX=0.919;exitY=0.388;exitDx=0;exitDy=0;exitPerimeter=0;" edge="1" parent="1" source="18" target="3">
                    <mxGeometry width="50" height="50" relative="1" as="geometry">
                        <mxPoint x="-30" y="100" as="sourcePoint"/>
                        <mxPoint x="20" y="50" as="targetPoint"/>
                        <Array as="points">
                            <mxPoint y="50"/>
                            <mxPoint x="10" y="40"/>
                        </Array>
                    </mxGeometry>
                </mxCell>
                <mxCell id="41" value="&lt;font color=&quot;#000000&quot; style=&quot;line-height: 1 ; font-size: 6px&quot;&gt;GND&lt;br&gt;&lt;/font&gt;" style="text;html=1;strokeColor=none;fillColor=none;align=left;verticalAlign=middle;whiteSpace=wrap;rounded=0;horizontal=1;fontSize=6;" vertex="1" parent="1">
                    <mxGeometry x="80" y="35" width="30" height="10" as="geometry"/>
                </mxCell>
                <mxCell id="43" value="&lt;font color=&quot;#000000&quot; style=&quot;line-height: 1 ; font-size: 6px&quot;&gt;D7&lt;br&gt;&lt;/font&gt;" style="text;html=1;strokeColor=none;fillColor=none;align=left;verticalAlign=middle;whiteSpace=wrap;rounded=0;horizontal=1;fontSize=6;" vertex="1" parent="1">
                    <mxGeometry x="80" y="95" width="30" height="10" as="geometry"/>
                </mxCell>
                <mxCell id="45" value="" style="endArrow=none;html=1;fontSize=6;fontColor=#FFFFFF;strokeColor=#B09500;exitX=0;exitY=0.5;exitDx=0;exitDy=0;entryX=0.925;entryY=0.501;entryDx=0;entryDy=0;entryPerimeter=0;fillColor=#e3c800;" edge="1" parent="1" source="43" target="18">
                    <mxGeometry width="50" height="50" relative="1" as="geometry">
                        <mxPoint x="50" y="100" as="sourcePoint"/>
                        <mxPoint x="100" y="50" as="targetPoint"/>
                        <Array as="points">
                            <mxPoint x="20" y="100"/>
                            <mxPoint y="70"/>
                        </Array>
                    </mxGeometry>
                </mxCell>
                <mxCell id="46" value="" style="endArrow=none;html=1;fontSize=6;fontColor=#FFFFFF;strokeColor=#B09500;exitX=0;exitY=0.5;exitDx=0;exitDy=0;entryX=0.992;entryY=0.606;entryDx=0;entryDy=0;entryPerimeter=0;fillColor=#e3c800;" edge="1" parent="1" target="18">
                    <mxGeometry width="50" height="50" relative="1" as="geometry">
                        <mxPoint x="80.27" y="110" as="sourcePoint"/>
                        <mxPoint x="1.7763568394002505e-14" y="39.319999999999936" as="targetPoint"/>
                        <Array as="points">
                            <mxPoint x="10" y="110"/>
                            <mxPoint x="-10" y="89"/>
                        </Array>
                    </mxGeometry>
                </mxCell>
                <mxCell id="47" value="&lt;font color=&quot;#000000&quot; style=&quot;line-height: 1 ; font-size: 6px&quot;&gt;D8&lt;br&gt;&lt;/font&gt;" style="text;html=1;strokeColor=none;fillColor=none;align=left;verticalAlign=middle;whiteSpace=wrap;rounded=0;horizontal=1;fontSize=6;" vertex="1" parent="1">
                    <mxGeometry x="80" y="105" width="30" height="10" as="geometry"/>
                </mxCell>
                <mxCell id="48" value="" style="endArrow=none;html=1;fontSize=6;fontColor=#FFFFFF;strokeColor=#B09500;exitX=0;exitY=0.5;exitDx=0;exitDy=0;entryX=1.05;entryY=0.715;entryDx=0;entryDy=0;entryPerimeter=0;fillColor=#e3c800;" edge="1" parent="1" target="18">
                    <mxGeometry width="50" height="50" relative="1" as="geometry">
                        <mxPoint x="80.26999999999998" y="120" as="sourcePoint"/>
                        <mxPoint x="-30" y="49.39999999999998" as="targetPoint"/>
                        <Array as="points">
                            <mxPoint y="120"/>
                            <mxPoint x="-20" y="109"/>
                        </Array>
                    </mxGeometry>
                </mxCell>
                <mxCell id="49" value="" style="endArrow=none;html=1;fontSize=6;fontColor=#FFFFFF;strokeColor=#B09500;exitX=0;exitY=0.5;exitDx=0;exitDy=0;entryX=1.012;entryY=0.83;entryDx=0;entryDy=0;entryPerimeter=0;fillColor=#e3c800;" edge="1" parent="1" target="18">
                    <mxGeometry width="50" height="50" relative="1" as="geometry">
                        <mxPoint x="80.26999999999998" y="130" as="sourcePoint"/>
                        <mxPoint x="-30" y="59.39999999999998" as="targetPoint"/>
                        <Array as="points">
                            <mxPoint x="-10" y="130"/>
                        </Array>
                    </mxGeometry>
                </mxCell>
                <mxCell id="50" value="&lt;font color=&quot;#000000&quot; style=&quot;line-height: 1 ; font-size: 6px&quot;&gt;D9&lt;br&gt;&lt;/font&gt;" style="text;html=1;strokeColor=none;fillColor=none;align=left;verticalAlign=middle;whiteSpace=wrap;rounded=0;horizontal=1;fontSize=6;" vertex="1" parent="1">
                    <mxGeometry x="80" y="115" width="30" height="10" as="geometry"/>
                </mxCell>
                <mxCell id="51" value="&lt;font color=&quot;#000000&quot; style=&quot;line-height: 1 ; font-size: 6px&quot;&gt;D10&lt;br&gt;&lt;/font&gt;" style="text;html=1;strokeColor=none;fillColor=none;align=left;verticalAlign=middle;whiteSpace=wrap;rounded=0;horizontal=1;fontSize=6;" vertex="1" parent="1">
                    <mxGeometry x="80" y="125" width="30" height="10" as="geometry"/>
                </mxCell>
                <mxCell id="53" value="Свет в коридоре" style="text;html=1;strokeColor=none;fillColor=none;align=right;verticalAlign=middle;whiteSpace=wrap;rounded=0;fontSize=8;fontColor=#000000;" vertex="1" parent="1">
                    <mxGeometry x="-240" y="-16" width="160" height="10" as="geometry"/>
                </mxCell>
                <mxCell id="54" value="Свет на лестнице" style="text;html=1;strokeColor=none;fillColor=none;align=right;verticalAlign=middle;whiteSpace=wrap;rounded=0;fontSize=8;fontColor=#000000;" vertex="1" parent="1">
                    <mxGeometry x="-240" y="3" width="160" height="10" as="geometry"/>
                </mxCell>
                <mxCell id="56" value="Выход 5V для датчиков" style="text;html=1;strokeColor=none;fillColor=none;align=right;verticalAlign=middle;whiteSpace=wrap;rounded=0;fontSize=8;fontColor=#000000;" vertex="1" parent="1">
                    <mxGeometry x="-240" y="24" width="160" height="10" as="geometry"/>
                </mxCell>
                <mxCell id="57" value="Выход GND для датчиков" style="text;html=1;strokeColor=none;fillColor=none;align=right;verticalAlign=middle;whiteSpace=wrap;rounded=0;fontSize=8;fontColor=#000000;" vertex="1" parent="1">
                    <mxGeometry x="-240" y="44" width="160" height="10" as="geometry"/>
                </mxCell>
                <mxCell id="58" value="Датчик движения коридора у лестницы" style="text;html=1;strokeColor=none;fillColor=none;align=right;verticalAlign=middle;whiteSpace=wrap;rounded=0;fontSize=8;fontColor=#000000;" vertex="1" parent="1">
                    <mxGeometry x="-240" y="64" width="160" height="10" as="geometry"/>
                </mxCell>
                <mxCell id="59" value="Датчик движения коридора у С/У" style="text;html=1;strokeColor=none;fillColor=none;align=right;verticalAlign=middle;whiteSpace=wrap;rounded=0;fontSize=8;fontColor=#000000;" vertex="1" parent="1">
                    <mxGeometry x="-240" y="84" width="160" height="10" as="geometry"/>
                </mxCell>
                <mxCell id="60" value="Датчик движения лестницы верх" style="text;html=1;strokeColor=none;fillColor=none;align=right;verticalAlign=middle;whiteSpace=wrap;rounded=0;fontSize=8;fontColor=#000000;" vertex="1" parent="1">
                    <mxGeometry x="-240" y="104" width="160" height="10" as="geometry"/>
                </mxCell>
                <mxCell id="61" value="Датчик движения лестницы низ" style="text;html=1;strokeColor=none;fillColor=none;align=right;verticalAlign=middle;whiteSpace=wrap;rounded=0;fontSize=8;fontColor=#000000;" vertex="1" parent="1">
                    <mxGeometry x="-240" y="124" width="160" height="10" as="geometry"/>
                </mxCell>
                <mxCell id="62" value="Датчик света" style="text;html=1;strokeColor=none;fillColor=none;align=right;verticalAlign=middle;whiteSpace=wrap;rounded=0;fontSize=8;fontColor=#000000;" vertex="1" parent="1">
                    <mxGeometry x="-240" y="144" width="160" height="10" as="geometry"/>
                </mxCell>
                <mxCell id="63" value="100Ом" style="rounded=1;whiteSpace=wrap;html=1;fontSize=6;fontColor=#ffffff;strokeColor=none;fillColor=#647687;" vertex="1" parent="1">
                    <mxGeometry x="-30" y="-55" width="30" height="10" as="geometry"/>
                </mxCell>
                <mxCell id="64" value="100Ом" style="rounded=1;whiteSpace=wrap;html=1;fontSize=6;fontColor=#ffffff;strokeColor=none;fillColor=#647687;" vertex="1" parent="1">
                    <mxGeometry x="-40" y="-75" width="30" height="10" as="geometry"/>
                </mxCell>
                <mxCell id="69" style="edgeStyle=none;html=1;fontSize=6;fontColor=#000000;strokeColor=#000000;" edge="1" parent="1" source="66">
                    <mxGeometry relative="1" as="geometry">
                        <mxPoint x="-20" y="210" as="targetPoint"/>
                    </mxGeometry>
                </mxCell>
                <mxCell id="66" value="10кОм" style="rounded=1;whiteSpace=wrap;html=1;fontSize=6;fontColor=#ffffff;strokeColor=#432D57;fillColor=#76608a;rotation=90;" vertex="1" parent="1">
                    <mxGeometry x="-35" y="170" width="30" height="10" as="geometry"/>
                </mxCell>
                <mxCell id="67" value="" style="endArrow=none;html=1;fontSize=6;fontColor=#000000;strokeColor=#000000;exitX=0;exitY=0.5;exitDx=0;exitDy=0;" edge="1" parent="1" source="66">
                    <mxGeometry width="50" height="50" relative="1" as="geometry">
                        <mxPoint x="10" y="160" as="sourcePoint"/>
                        <mxPoint x="-20" y="150" as="targetPoint"/>
                    </mxGeometry>
                </mxCell>
                <mxCell id="73" style="edgeStyle=none;html=1;fontSize=6;fontColor=#1A1A1A;strokeColor=#000000;entryX=0.5;entryY=1;entryDx=0;entryDy=0;" edge="1" parent="1" source="71" target="74">
                    <mxGeometry relative="1" as="geometry">
                        <mxPoint x="10" y="-170" as="targetPoint"/>
                    </mxGeometry>
                </mxCell>
                <mxCell id="71" value="10кОм" style="rounded=1;whiteSpace=wrap;html=1;fontSize=6;fontColor=#ffffff;strokeColor=#432D57;fillColor=#76608a;rotation=90;" vertex="1" parent="1">
                    <mxGeometry x="-15" y="-130" width="30" height="10" as="geometry"/>
                </mxCell>
                <mxCell id="72" value="" style="endArrow=none;html=1;fontSize=6;fontColor=#1A1A1A;strokeColor=#000000;exitX=1;exitY=0.5;exitDx=0;exitDy=0;" edge="1" parent="1" source="71">
                    <mxGeometry width="50" height="50" relative="1" as="geometry">
                        <mxPoint x="-20" y="20" as="sourcePoint"/>
                        <mxPoint y="-70" as="targetPoint"/>
                    </mxGeometry>
                </mxCell>
                <mxCell id="74" value="GND" style="text;html=1;strokeColor=none;fillColor=none;align=center;verticalAlign=middle;whiteSpace=wrap;rounded=0;labelBackgroundColor=none;fontSize=6;fontColor=#1A1A1A;" vertex="1" parent="1">
                    <mxGeometry x="-10" y="-180" width="20" height="10" as="geometry"/>
                </mxCell>
                <mxCell id="76" value="GND" style="text;html=1;strokeColor=none;fillColor=none;align=center;verticalAlign=middle;whiteSpace=wrap;rounded=0;labelBackgroundColor=none;fontSize=6;fontColor=#1A1A1A;" vertex="1" parent="1">
                    <mxGeometry x="-50" y="210" width="60" height="10" as="geometry"/>
                </mxCell>
                <mxCell id="80" style="edgeStyle=none;html=1;entryX=0.5;entryY=1;entryDx=0;entryDy=0;fontSize=6;fontColor=#1A1A1A;strokeColor=#000000;" edge="1" parent="1" source="77" target="79">
                    <mxGeometry relative="1" as="geometry"/>
                </mxCell>
                <mxCell id="77" value="10кОм" style="rounded=1;whiteSpace=wrap;html=1;fontSize=6;fontColor=#ffffff;strokeColor=#432D57;fillColor=#76608a;rotation=90;" vertex="1" parent="1">
                    <mxGeometry x="5" y="-130" width="30" height="10" as="geometry"/>
                </mxCell>
                <mxCell id="78" value="" style="endArrow=none;html=1;fontSize=6;fontColor=#1A1A1A;strokeColor=#000000;entryX=1;entryY=0.5;entryDx=0;entryDy=0;" edge="1" parent="1" target="77">
                    <mxGeometry width="50" height="50" relative="1" as="geometry">
                        <mxPoint x="20" y="-50" as="sourcePoint"/>
                        <mxPoint x="50" y="-140" as="targetPoint"/>
                    </mxGeometry>
                </mxCell>
                <mxCell id="79" value="GND" style="text;html=1;strokeColor=none;fillColor=none;align=center;verticalAlign=middle;whiteSpace=wrap;rounded=0;labelBackgroundColor=none;fontSize=6;fontColor=#1A1A1A;" vertex="1" parent="1">
                    <mxGeometry x="10" y="-180" width="20" height="10" as="geometry"/>
                </mxCell>
                <mxCell id="81" value="ВВОД" style="text;html=1;strokeColor=none;fillColor=none;align=center;verticalAlign=middle;whiteSpace=wrap;rounded=0;labelBackgroundColor=none;fontSize=6;fontColor=#1A1A1A;" vertex="1" parent="1">
                    <mxGeometry x="210" y="200" width="50" height="10" as="geometry"/>
                </mxCell>
            </root>
        </mxGraphModel>
    </diagram>
</mxfile>